<svg width="145" height="137" viewBox="0 0 145 137" fill="none" xmlns="http://www.w3.org/2000/svg">
<g opacity="0.18">
<path opacity="0.68" d="M51.7167 22.8333V97.0417M95.0354 37.7892V114.167M13.8354 44.4108V99.9529C13.8354 110.799 21.9917 115.251 31.9 109.885L46.0979 102.236C49.1792 100.581 54.3146 100.41 57.5167 101.951L89.2355 116.964C92.4375 118.448 97.5729 118.334 100.654 116.678L126.815 102.522C130.138 100.695 132.917 96.2425 132.917 92.5892V37.0471C132.917 26.2012 124.76 21.7487 114.852 27.1146L100.654 34.7637C97.5729 36.4192 92.4375 36.5904 89.2355 35.0492L57.5167 20.0933C54.3146 18.6092 49.1792 18.7233 46.0979 20.3787L19.9375 34.5354C16.5542 36.3621 13.8354 40.8146 13.8354 44.4108Z" stroke="black" stroke-width="8" stroke-linecap="round" stroke-linejoin="round"/>
</g>
</svg>
